# xmcd
#
# Track frame offsets: 
#        150
#        13427
#        29287
#        41364
#        55341
#        72610
#        82536
#        98748
#        107466
#        124877
#        139483
#        150671
#        164081
#        174803
#        189139
#
# Disc length: 2663 seconds
#
# Revision: 2
# Processed by: cddbd v1.5.2PL0 Copyright (c) Steve Scherf et al.
# Submitted via: ExactAudioCopy v1.0b1
#
DISCID=c00a650f
DTITLE=Niemen - Od poczatku CD2 - Dziwny jest ten swiat
DYEAR=2002
DGENRE=Blues
TTITLE0=GDZIE TO JEST
TTITLE1=NIGDY SIE NIE DOWIESZ
TTITLE2=TEN LOS, ZLY LOS
TTITLE3=COS, CO KOCHAM NAJWIECEJ
TTITLE4=WSPOMNIENIE
TTITLE5=NIE WSTAWAJ LEWA NOGA
TTITLE6=DZIWNY JEST TEN SWIAT
TTITLE7=JESZCZE SWOJ EGZAMIN ZDASZ
TTITLE8=CHCIALBYM COFNAC CZAS
TTITLE9=PAMIETAM TEN DZIEN
TTITLE10=NIE DLA MNIE TAKA DZIEWCZYNA
TTITLE11=CHYBA, ZE MNIE POCALUJESZ
TTITLE12=JAKI KOLOR WYBRAC CHCESZ
TTITLE13=PROSZE, PRZEBACZ
TTITLE14=DOMEK BEZ ADRESU
EXTD=TITLES BY R.R.G. KROTOSZYN '97
EXTT0=
EXTT1=
EXTT2=
EXTT3=
EXTT4=
EXTT5=
EXTT6=
EXTT7=
EXTT8=
EXTT9=
EXTT10=
EXTT11=
EXTT12=
EXTT13=
EXTT14=
PLAYORDER=
